<svg xmlns="http://www.w3.org/2000/svg" viewBox="0 0 32 32" fill="none">
  <rect width="32" height="32" rx="8" fill="#050505"/>
  <rect x="0.5" y="0.5" width="31" height="31" rx="7.5" stroke="#8b5cf6" stroke-opacity="0.45"/>
  <path d="M10.5 18.5a1 1 0 0 1-.78-1.63l7.43-7.65a.375.375 0 0 1 .645.345l-1.44 4.52A1 1 0 0 0 16.75 15.5H22a1 1 0 0 1 .78 1.63l-7.43 7.65a.375.375 0 0 1-.645-.345l1.44-4.52A1 1 0 0 0 15.25 18.5z" stroke="#60a5fa" stroke-width="1.35" stroke-linecap="round" stroke-linejoin="round" fill="rgba(59,130,246,0.22)"/>
</svg>
